<?xml version="1.0" encoding="utf-8"?>
<!-- Generator: Adobe Illustrator 19.1.0, SVG Export Plug-In . SVG Version: 6.00 Build 0)  -->
<svg version="1.1" id="Layer_1" xmlns="http://www.w3.org/2000/svg" xmlns:xlink="http://www.w3.org/1999/xlink" x="0px" y="0px"
	 viewBox="0 0 16 16" style="enable-background:new 0 0 16 16;" xml:space="preserve">
<style type="text/css">
	.st0{fill:#010101;}
</style>
<g transform="translate(0.000000,500.000000) scale(0.100000,-0.100000)">
	<path class="st0" d="M81.7,4999.2c-20.3-3.2-47.4-12.8-60.2-21.4c-5.4-3.6-12.5-10.9-15.4-15.9c-4.2-7.3-5.7-13-6.1-23.6
		c-0.4-14.2,2-27.5,8.4-47c9.3-27.7,20.9-42.8,37.2-48.5c6.6-2.3,12.9-3.1,21.9-2.7c9.8,0.4,16.6,1.6,29,5
		c16.6,4.5,31.2,10.5,40.6,16.6c6.6,4.3,14.6,12.8,17.4,18.5c3.8,7.7,5,13.5,5.1,23.9c0.1,10.2-0.6,15.3-3.8,28.2
		c-4.4,18.2-11.8,36.3-18.8,46.6c-6.7,9.7-15.8,16.5-26.1,19.4C104.7,5000.1,90.4,5000.6,81.7,4999.2z M91.3,4968.5
		c1.3-1.2,2.5-3.7,3.9-7.9l2-6.2l6.5,2.1c5.4,1.8,6.9,2,8.7,1.5c3.9-1.1,6.5-5.3,5.8-9.2c-0.6-3.1-3.3-5.2-9.4-7.2
		c-3.1-1-5.8-2.2-5.9-2.6c-0.4-1.2,6.2-20.6,7-20.6c0.4,0,3.4,0.9,6.7,2c6.5,2.2,7.9,2.1,10.9-0.4c2.8-2.4,3.6-5.2,2.2-8.6
		c-1.2-3.1-3.3-4.5-9.8-6.5c-2.6-0.8-4.9-1.9-5-2.3c-0.2-0.4,0.6-3.5,1.7-6.9c2.3-6.8,2.2-8.8-0.5-11.4c-3.6-3.4-7.7-3.6-10.9-0.4
		c-1.1,1.1-2.5,4.1-3.8,7.9c-1.3,3.6-2.4,6.1-2.9,5.9c-0.4-0.1-5.2-1.8-10.7-3.6c-5.6-1.9-10.1-3.7-10.1-4.1c0-0.4,0.9-3.4,2-6.8
		c1.9-5.7,2-6.2,1.1-8.6c-1.7-4.9-7-6.8-11.2-4.2c-2.4,1.4-3.3,3-5.6,10l-1.7,5.2l-6.6-2.2c-4-1.3-7.2-2-8.1-1.7
		c-6.7,1.7-8.6,9.8-3.1,14c0.5,0.4,3.6,1.7,6.9,2.8c3.6,1.2,5.9,2.3,5.7,2.7c-0.1,0.4-1.7,4.9-3.3,10c-1.7,5.1-3.3,9.5-3.5,9.8
		c-0.3,0.3-3.3-0.4-6.8-1.5c-5.9-2-6.4-2-8.8-1.2c-3.3,1.1-5.5,4.3-5.5,7.7c0,3.8,2.9,6.4,9.6,8.5c3,1,5.6,1.9,5.9,2.2
		c0.3,0.3-0.5,3.4-1.7,7c-1.7,5.2-2,7-1.6,8.6c1.3,4.5,6.2,7.1,10.3,5.4c2.9-1.2,4.4-3.6,6.6-10.5c1-2.9,1.9-5.3,2.2-5.3
		c0.4,0,21.2,7,21.5,7.3c0.1,0.1-0.7,2.7-1.8,5.9c-2.2,6.6-2.4,9-0.8,11.7C82,4971.1,87.8,4971.9,91.3,4968.5z"/>
	<path class="st0" d="M76.2,4930.7c-5.6-1.9-10.3-3.6-10.5-3.8c-0.5-0.4,6.7-21.3,7.3-21.1c0.3,0.1,5.2,1.8,10.9,3.6
		s10.3,3.4,10.3,3.5c0.3,0.3-7,21.4-7.3,21.3C86.6,4934.4,81.9,4932.7,76.2,4930.7z"/>
</g>
</svg>
